<svg width="128" height="128" viewBox="0 0 128 128" fill="none" xmlns="http://www.w3.org/2000/svg">
<path d="M60.4727 115.372C60.5237 114.93 60.6795 114.553 60.9402 114.241C61.2009 113.93 61.5552 113.692 62.0029 113.528C62.4506 113.363 62.9834 113.281 63.6012 113.281C64.1169 113.281 64.5902 113.341 65.0209 113.46C65.446 113.579 65.8144 113.757 66.1261 113.995C66.4321 114.233 66.6702 114.527 66.8402 114.879C67.0102 115.236 67.0952 115.652 67.0952 116.128C67.0952 116.604 67.0102 117.02 66.8402 117.377C66.6702 117.734 66.4321 118.031 66.1261 118.269C65.8144 118.513 65.446 118.694 65.0209 118.813C64.5902 118.938 64.1169 119 63.6012 119C62.9834 119 62.4506 118.915 62.0029 118.745C61.5495 118.575 61.1924 118.332 60.9317 118.014C60.671 117.703 60.518 117.323 60.4727 116.876H61.5948C61.6685 117.114 61.7932 117.317 61.9689 117.487C62.1389 117.663 62.36 117.796 62.632 117.887C62.9041 117.977 63.2271 118.023 63.6012 118.023C64.0659 118.023 64.474 117.949 64.8254 117.802C65.1767 117.66 65.4488 117.448 65.6415 117.165C65.8342 116.887 65.9305 116.541 65.9305 116.128C65.9305 115.72 65.8342 115.377 65.6415 115.1C65.4488 114.822 65.1767 114.61 64.8254 114.462C64.474 114.321 64.0659 114.25 63.6012 114.25C63.2271 114.25 62.9069 114.295 62.6405 114.386C62.3685 114.476 62.1474 114.607 61.9774 114.777C61.8017 114.947 61.6742 115.145 61.5948 115.372H60.4727Z" fill="#FFF"/>
<path d="M54.7292 112.393C55.4479 112.528 56.0426 112.754 56.5135 113.072C56.9778 113.395 57.3074 113.791 57.5022 114.26C57.6915 114.728 57.7315 115.254 57.6222 115.838C57.5118 116.429 57.2838 116.908 56.9383 117.275C56.5872 117.642 56.1374 117.889 55.5887 118.017C55.0335 118.15 54.3965 118.149 53.6779 118.015C52.9536 117.879 52.3594 117.65 51.8951 117.327C51.4298 117.01 51.1025 116.617 50.9132 116.15C50.7183 115.681 50.6761 115.151 50.7865 114.561C50.8958 113.976 51.126 113.501 51.4771 113.134C51.8226 112.767 52.2702 112.516 52.8199 112.382C53.3685 112.254 54.0049 112.258 54.7292 112.393ZM54.5495 113.354C54.1039 113.271 53.7014 113.265 53.3421 113.336C52.9773 113.406 52.6747 113.56 52.4342 113.797C52.1882 114.034 52.0261 114.361 51.948 114.778C51.8699 115.196 51.9029 115.559 52.0468 115.869C52.1852 116.177 52.4118 116.43 52.7267 116.627C53.0349 116.828 53.4118 116.971 53.8575 117.054C54.2976 117.136 54.7034 117.14 55.0749 117.065C55.4453 116.996 55.7535 116.844 55.9995 116.607C56.2455 116.371 56.4076 116.044 56.4857 115.626C56.5638 115.208 56.5309 114.845 56.3869 114.536C56.2429 114.226 56.0107 113.973 55.6903 113.774C55.3699 113.576 54.9897 113.436 54.5495 113.354Z" fill="#FFF"/>
<path d="M43.309 110.14L43.6942 110.134L42.0604 114.349L41.006 113.941L42.993 108.814L44.0473 109.223L46.624 114.877L46.2389 114.883L47.8604 110.699L48.9147 111.108L46.9277 116.234L45.8734 115.826L43.309 110.14Z" fill="#FFF"/>
<path d="M37.6054 112.193L32.6759 109.142L33.1727 108.34L38.1022 111.391L37.6054 112.193ZM36.0518 110.262L35.0905 109.667L37.5519 105.693L38.5133 106.288L36.0518 110.262Z" fill="#FFF"/>
<path d="M31.117 102.447L30.4812 103.144L27.7923 100.694L28.428 99.9968L31.117 102.447ZM32.936 102.483L27.3205 104.806L26.4158 103.982L28.1927 98.1611L29.1036 98.9912L27.4358 104.175L27.0337 103.809L32.0313 101.659L32.936 102.483Z" fill="#FFF"/>
<path d="M20.8803 92.1043C21.2638 91.8787 21.6585 91.776 22.0644 91.7962C22.4702 91.8163 22.8737 91.9555 23.2747 92.2137C23.6756 92.4718 24.0623 92.8472 24.4346 93.34C24.7454 93.7514 24.9831 94.1647 25.1477 94.58C25.3089 94.9907 25.3884 95.3921 25.3863 95.7842C25.3808 96.1717 25.289 96.5391 25.1111 96.8863C24.9286 97.237 24.6474 97.5558 24.2675 97.8425C23.8876 98.1293 23.5039 98.3124 23.1165 98.3919C22.7291 98.4713 22.3482 98.4607 21.9738 98.36C21.5915 98.2581 21.2247 98.0735 20.8736 97.8061C20.5145 97.5377 20.1796 97.1977 19.8688 96.7864C19.4965 96.2936 19.2433 95.8174 19.1091 95.3579C18.9716 94.8938 18.9509 94.4622 19.0471 94.0631C19.1387 93.6673 19.3495 93.3165 19.6795 93.0107L20.3558 93.9058C20.2102 94.1079 20.1225 94.3303 20.0927 94.5729C20.055 94.8143 20.0819 95.0708 20.1735 95.3425C20.265 95.6141 20.4235 95.8991 20.649 96.1975C20.929 96.5682 21.2337 96.8493 21.5631 97.0408C21.8879 97.2357 22.2215 97.3247 22.5637 97.3077C22.9015 97.2941 23.2354 97.1627 23.5656 96.9135C23.8913 96.6677 24.1068 96.3843 24.2123 96.0633C24.3178 95.7424 24.3235 95.3973 24.2293 95.0283C24.1306 94.6627 23.9412 94.2945 23.6612 93.9238C23.4357 93.6254 23.2066 93.3973 22.9737 93.2394C22.7374 93.0771 22.5002 92.9793 22.262 92.9461C22.0204 92.9084 21.7853 92.9261 21.5566 92.9994L20.8803 92.1043Z" fill="#FFF"/>
<path d="M16.1847 91.0591L13.6003 85.8714L14.445 85.4509L17.0294 90.6387L16.1847 91.0591ZM15.8808 88.5999L15.3768 87.5882L19.5623 85.505L20.0663 86.5167L15.8808 88.5999Z" fill="#FFF"/>
<path d="M14.2644 68.3495L14.3139 68.8826L9.10384 66.1905L8.99951 65.0652L14.4764 64.5579L14.5808 65.6832L10.6022 66.0517L10.6532 65.7739L14.7886 67.9255L14.9055 69.1862L11.253 72.0591L11.1517 71.7953L15.1134 71.4284L15.2177 72.5538L9.74078 73.061L9.63645 71.9357L14.2644 68.3495Z" fill="#FFF"/>
<path d="M12.4494 57.7856L13.7954 57.9103L14.1868 53.6881L15.1264 53.7751L14.6307 59.1226L9.15377 58.6154L9.64873 53.2763L10.5884 53.3634L10.1977 57.5771L11.5606 57.7033L11.8806 54.2511L12.7695 54.3334L12.4494 57.7856Z" fill="#FFF"/>
<path d="M25.1927 30.1878C25.5147 30.4948 25.7216 30.8461 25.8132 31.2419C25.9049 31.6376 25.8813 32.0635 25.7427 32.5197C25.604 32.9758 25.3485 33.4502 24.9763 33.943C24.6655 34.3544 24.3328 34.696 23.9782 34.9679C23.6271 35.2353 23.2626 35.4216 22.8848 35.5269C22.5104 35.6276 22.1318 35.6399 21.7489 35.5639C21.3615 35.4844 20.9778 35.3013 20.5979 35.0146C20.218 34.7278 19.9368 34.4091 19.7543 34.0584C19.5718 33.7077 19.4778 33.3386 19.4723 32.9511C19.4657 32.5556 19.543 32.1525 19.7041 31.7418C19.8642 31.3231 20.0997 30.908 20.4105 30.4967C20.7828 30.0039 21.1717 29.6302 21.5772 29.3754C21.9861 29.1162 22.3957 28.9782 22.8061 28.9614C23.212 28.9412 23.6072 29.0479 23.9919 29.2814L23.3156 30.1765C23.0813 30.0919 22.8433 30.0685 22.6017 30.1062C22.3591 30.136 22.1196 30.2321 21.8833 30.3944C21.6469 30.5568 21.4161 30.7872 21.1907 31.0856C20.9106 31.4563 20.7235 31.8261 20.6293 32.1952C20.5306 32.5608 20.5363 32.9058 20.6463 33.2302C20.7518 33.5512 20.9696 33.8363 21.2998 34.0855C21.6254 34.3314 21.9571 34.461 22.2949 34.4746C22.6326 34.4882 22.9662 34.3992 23.2955 34.2077C23.6203 34.0128 23.9228 33.7299 24.2029 33.3592C24.4283 33.0609 24.5851 32.7781 24.6732 32.511C24.7648 32.2394 24.794 31.9846 24.7608 31.7465C24.731 31.504 24.6495 31.2828 24.5164 31.0829L25.1927 30.1878Z" fill="#FFF"/>
<path d="M31.0318 27.4014C30.4915 27.8938 29.9523 28.2317 29.4143 28.4154C28.8766 28.5911 28.3619 28.6154 27.8703 28.4884C27.3829 28.3576 26.9388 28.0724 26.5378 27.6329C26.1331 27.1891 25.8881 26.7186 25.8028 26.2214C25.7216 25.7204 25.7953 25.2126 26.0237 24.6978C26.2525 24.175 26.637 23.6675 27.1773 23.1752C27.7218 22.679 28.2629 22.3431 28.8006 22.1675C29.3345 21.9876 29.8451 21.9631 30.3325 22.0939C30.8241 22.2209 31.2723 22.5063 31.677 22.95C32.0779 23.3896 32.3189 23.8599 32.4001 24.3609C32.4854 24.8581 32.4158 25.3661 32.1912 25.8851C31.9627 26.3998 31.5763 26.9053 31.0318 27.4014ZM30.3732 26.6793C30.7082 26.3739 30.9556 26.0565 31.1153 25.7271C31.2791 25.3938 31.3387 25.0597 31.294 24.7248C31.2535 24.3861 31.0901 24.0597 30.8037 23.7458C30.5173 23.4318 30.2073 23.239 29.8736 23.1674C29.5441 23.0921 29.2058 23.1205 28.8587 23.2529C28.5119 23.3772 28.171 23.592 27.836 23.8973C27.5051 24.1988 27.2575 24.5202 27.0933 24.8615C26.9252 25.1986 26.8615 25.5365 26.902 25.8752C26.9425 26.214 27.1059 26.5403 27.3923 26.8543C27.6786 27.1683 27.9887 27.361 28.3224 27.4326C28.656 27.5042 28.9985 27.4719 29.3499 27.3357C29.7012 27.1996 30.0423 26.9808 30.3732 26.6793Z" fill="#FFF"/>
<path d="M39.7131 19.65L39.4856 19.9607L37.1047 16.1172L38.066 15.5222L40.9616 20.1966L40.0003 20.7916L33.9331 19.4393L34.1606 19.1286L36.5236 22.9433L35.5623 23.5382L32.6667 18.8638L33.628 18.2689L39.7131 19.65Z" fill="#FFF"/>
<path d="M41.5112 13.8633L46.9176 11.7698L47.2585 12.6493L41.8521 14.7428L41.5112 13.8633ZM43.9891 13.7877L45.0435 13.3795L46.7325 17.7375L45.6782 18.1458L43.9891 13.7877Z" fill="#FFF"/>
<path d="M53.2022 14.561L53.0288 13.6338L56.6054 12.9655L56.7788 13.8927L53.2022 14.561ZM52.077 15.9901L53.6067 10.1112L54.8101 9.88631L58.3863 14.8112L57.1746 15.0376L54.041 10.5833L54.5758 10.4833L53.2804 15.7652L52.077 15.9901Z" fill="#FFF"/>
<path d="M67.6286 12.6284C67.5775 13.0703 67.4217 13.447 67.161 13.7586C66.9003 14.0701 66.546 14.3081 66.0983 14.4724C65.6506 14.6366 65.1178 14.7188 64.5 14.7188C63.9843 14.7188 63.5111 14.6593 63.0803 14.5403C62.6553 14.4214 62.2869 14.2429 61.9751 14.005C61.6691 13.7671 61.4311 13.4725 61.261 13.1213C61.091 12.7644 61.006 12.348 61.006 11.8721C61.006 11.3963 61.091 10.9799 61.261 10.623C61.4311 10.2661 61.6691 9.96868 61.9751 9.73075C62.2869 9.48716 62.6553 9.30588 63.0803 9.18691C63.5111 9.06228 63.9843 8.99997 64.5 8.99997C65.1178 8.99997 65.6506 9.08494 66.0983 9.25489C66.5517 9.42484 66.9088 9.66844 67.1695 9.98568C67.4302 10.2973 67.5832 10.6768 67.6286 11.1243H66.5064C66.4327 10.8864 66.308 10.6825 66.1323 10.5125C65.9623 10.3369 65.7412 10.2038 65.4692 10.1131C65.1972 10.0225 64.8741 9.97718 64.5 9.97718C64.0353 9.97718 63.6272 10.0508 63.2759 10.1981C62.9245 10.3397 62.6524 10.5522 62.4597 10.8354C62.267 11.113 62.1707 11.4586 62.1707 11.8721C62.1707 12.28 62.267 12.6227 62.4597 12.9003C62.6524 13.1779 62.9245 13.3903 63.2759 13.5376C63.6272 13.6793 64.0353 13.7501 64.5 13.7501C64.8741 13.7501 65.1943 13.7047 65.4607 13.6141C65.7327 13.5235 65.9538 13.3932 66.1238 13.2232C66.2995 13.0533 66.427 12.855 66.5064 12.6284H67.6286Z" fill="#FFF"/>
<path d="M71.2929 9.5129L76.9921 10.5778L76.8187 11.5049L71.1195 10.4401L71.2929 9.5129ZM73.4394 10.7525L74.5508 10.9602L73.6917 15.5542L72.5802 15.3466L73.4394 10.7525Z" fill="#FFF"/>
<path d="M90.581 21.6669L90.1256 21.385L95.4146 18.8516L96.3759 19.4465L93.4804 24.1209L92.519 23.526L94.6225 20.1303L94.8135 20.3385L90.6036 22.3405L89.5266 21.674L89.4341 17.0293L89.7057 17.1074L87.6112 20.4885L86.6499 19.8936L89.5455 15.2192L90.5068 15.8142L90.581 21.6669Z" fill="#FFF"/>
<path d="M99.5825 25.5158L98.6719 26.5143L101.807 29.3709L101.171 30.068L97.2005 26.45L100.906 22.387L104.87 25.9993L104.235 26.6963L101.106 23.8454L100.184 24.8564L102.747 27.1921L102.146 27.8515L99.5825 25.5158Z" fill="#FFF"/>
<path d="M114.463 53.3813C114.024 53.4532 113.618 53.4064 113.247 53.241C112.876 53.0757 112.55 52.8002 112.27 52.4147C111.989 52.0292 111.764 51.5395 111.595 50.9456C111.454 50.4498 111.382 49.9785 111.378 49.5319C111.376 49.0907 111.447 48.6877 111.591 48.3229C111.736 47.9635 111.955 47.6541 112.246 47.3945C112.543 47.1334 112.92 46.9377 113.378 46.8075C113.836 46.6772 114.26 46.645 114.65 46.7108C115.04 46.7766 115.391 46.9241 115.704 47.1532C116.024 47.3862 116.299 47.6907 116.53 48.0668C116.768 48.4468 116.957 48.8848 117.098 49.3806C117.267 49.9745 117.331 50.5099 117.29 50.9869C117.251 51.4693 117.114 51.8792 116.88 52.2167C116.652 52.5526 116.328 52.8036 115.91 52.9697L115.603 51.8908C115.812 51.7549 115.974 51.5792 116.089 51.3638C116.212 51.1522 116.279 50.9033 116.292 50.617C116.305 50.3306 116.26 50.0076 116.158 49.648C116.031 49.2012 115.848 48.8291 115.61 48.5316C115.378 48.2325 115.099 48.0291 114.774 47.9213C114.454 47.8121 114.095 47.814 113.697 47.9272C113.304 48.0388 113.001 48.2252 112.787 48.4864C112.572 48.7477 112.442 49.0673 112.397 49.4455C112.357 49.822 112.4 50.2337 112.527 50.6805C112.63 51.0401 112.761 51.3356 112.921 51.5669C113.083 51.8036 113.269 51.9805 113.479 52.0974C113.69 52.2198 113.916 52.2881 114.156 52.3024L114.463 53.3813Z" fill="#FFF"/>
<path d="M113.169 59.718C113.101 58.9904 113.156 58.3566 113.334 57.8167C113.518 57.282 113.808 56.8568 114.206 56.5412C114.604 56.2312 115.099 56.0488 115.692 55.9939C116.29 55.9385 116.813 56.0266 117.262 56.2582C117.711 56.4954 118.072 56.8602 118.345 57.3526C118.625 57.8501 118.798 58.4627 118.866 59.1904C118.934 59.9237 118.876 60.5577 118.692 61.0924C118.514 61.6267 118.226 62.0488 117.827 62.3587C117.43 62.6743 116.932 62.8598 116.334 62.9152C115.741 62.9701 115.22 62.879 114.771 62.6418C114.323 62.4102 113.959 62.0485 113.68 61.5566C113.407 61.0642 113.237 60.4513 113.169 59.718ZM114.142 59.6279C114.184 60.0791 114.288 60.4677 114.455 60.7936C114.622 61.1252 114.853 61.374 115.147 61.5402C115.442 61.712 115.801 61.7783 116.225 61.7391C116.648 61.6999 116.989 61.5688 117.247 61.3458C117.506 61.1284 117.687 60.8413 117.79 60.4847C117.9 60.1332 117.934 59.7318 117.892 59.2805C117.851 58.8349 117.743 58.4438 117.57 58.1071C117.402 57.7699 117.171 57.5154 116.876 57.3436C116.581 57.1718 116.222 57.1055 115.799 57.1447C115.375 57.1839 115.035 57.315 114.776 57.538C114.518 57.7611 114.338 58.0537 114.235 58.416C114.132 58.7783 114.101 59.1822 114.142 59.6279Z" fill="#FFF"/>
<path d="M114.125 71.3138L114.014 70.9451L118.518 71.3622L118.414 72.4876L112.937 71.9803L113.041 70.855L117.777 66.8304L117.888 67.1991L113.418 66.7851L113.523 65.6598L119 66.167L118.895 67.2924L114.125 71.3138Z" fill="#FFF"/>
<path d="M117.662 76.2354L116.075 81.8095L115.167 81.5513L116.754 75.9773L117.662 76.2354ZM116.229 78.2574L115.919 79.3445L111.422 78.0655L111.732 76.9784L116.229 78.2574Z" fill="#FFF"/>
<path d="M110.059 85.1404L110.904 85.5608L109.282 88.8165L108.438 88.3961L110.059 85.1404ZM109.597 83.3817L113.368 88.1447L112.823 89.2401L106.736 89.1247L107.285 88.0217L112.73 88.2066L112.487 88.6934L109.051 84.477L109.597 83.3817Z" fill="#FFF"/>
<path d="M102.908 97.8121C102.586 97.5052 102.38 97.1538 102.288 96.7581C102.196 96.3624 102.22 95.9364 102.358 95.4803C102.497 95.0242 102.753 94.5497 103.125 94.0569C103.436 93.6455 103.768 93.3039 104.123 93.032C104.474 92.7647 104.839 92.5783 105.216 92.4731C105.591 92.3724 105.969 92.36 106.352 92.436C106.74 92.5155 107.123 92.6986 107.503 92.9854C107.883 93.2722 108.164 93.5909 108.347 93.9416C108.529 94.2923 108.623 94.6614 108.629 95.0489C108.635 95.4443 108.558 95.8474 108.397 96.2582C108.237 96.6769 108.002 97.0919 107.691 97.5033C107.318 97.9961 106.93 98.3698 106.524 98.6245C106.115 98.8838 105.705 99.0218 105.295 99.0385C104.889 99.0587 104.494 98.9521 104.109 98.7185L104.786 97.8234C105.02 97.908 105.258 97.9315 105.499 97.8938C105.742 97.864 105.982 97.7679 106.218 97.6055C106.454 97.4431 106.685 97.2128 106.911 96.9144C107.191 96.5437 107.378 96.1738 107.472 95.8048C107.571 95.4391 107.565 95.0941 107.455 94.7697C107.349 94.4487 107.132 94.1636 106.801 93.9144C106.476 93.6686 106.144 93.5389 105.806 93.5253C105.469 93.5118 105.135 93.6007 104.806 93.7923C104.481 93.9872 104.178 94.27 103.898 94.6407C103.673 94.9391 103.516 95.2218 103.428 95.4889C103.336 95.7605 103.307 96.0154 103.34 96.2534C103.37 96.496 103.452 96.7172 103.585 96.917L102.908 97.8121Z" fill="#FFF"/>
<path d="M103.188 102.613L98.9029 106.517L98.2672 105.82L102.552 101.916L103.188 102.613ZM100.904 103.578L100.069 104.339L96.9188 100.885L97.7543 100.124L100.904 103.578Z" fill="#FFF"/>
<path d="M81.8605 110.674L82.3599 110.48L81.1953 116.226L80.1409 116.634L78.154 111.507L79.2083 111.099L80.6517 114.823L80.3704 114.85L81.309 110.286L82.4902 109.828L86.2542 112.554L86.0282 112.723L84.5909 109.015L85.6452 108.607L87.6322 113.733L86.5779 114.141L81.8605 110.674Z" fill="#FFF"/>
<path d="M74.7474 114.582L74.499 113.254L70.3291 114.034L70.1557 113.106L75.4371 112.12L76.4478 117.524L71.1747 118.509L71.0013 117.582L75.1629 116.804L74.9114 115.46L71.5019 116.097L71.3379 115.22L74.7474 114.582Z" fill="#FFF"/>
<circle cx="63.9995" cy="64" r="63.5" stroke="#272626"/>
<circle cx="14.4995" cy="44.5" r="2.5" fill="#272626"/>
<circle cx="109.5" cy="38.5" r="2.5" fill="#272626"/>
</svg>
